<mxfile host="65bd71144e">
    <diagram id="aZy7RwxwWrp3cMk5E42s" name="Page-1">
        <mxGraphModel dx="1618" dy="569" grid="1" gridSize="10" guides="1" tooltips="1" connect="1" arrows="1" fold="1" page="1" pageScale="1" pageWidth="850" pageHeight="1100" math="0" shadow="0">
            <root>
                <mxCell id="0"/>
                <mxCell id="1" parent="0"/>
                <mxCell id="3" value="saman&lt;div&gt;Node 20&lt;/div&gt;&lt;div&gt;&lt;br&gt;&lt;/div&gt;" style="shape=umlActor;verticalLabelPosition=bottom;verticalAlign=top;html=1;outlineConnect=0;fontStyle=1" vertex="1" parent="1">
                    <mxGeometry x="8" y="500" width="50" height="60" as="geometry"/>
                </mxCell>
                <mxCell id="4" value="Kamal&lt;div&gt;Node 18&lt;/div&gt;" style="shape=umlActor;verticalLabelPosition=bottom;verticalAlign=top;html=1;outlineConnect=0;fontStyle=1" vertex="1" parent="1">
                    <mxGeometry x="8" y="310" width="60" height="100" as="geometry"/>
                </mxCell>
                <mxCell id="5" value="&lt;div&gt;janith&lt;/div&gt;&lt;div&gt;Node 22&lt;/div&gt;&lt;div&gt;&lt;br&gt;&lt;/div&gt;" style="shape=umlActor;verticalLabelPosition=bottom;verticalAlign=top;html=1;outlineConnect=0;fontStyle=1" vertex="1" parent="1">
                    <mxGeometry x="18" y="645" width="30" height="60" as="geometry"/>
                </mxCell>
                <mxCell id="6" value="&lt;ul style=&quot;font-size: 21px;&quot;&gt;&lt;li&gt;&lt;b&gt;Node 18&lt;/b&gt;&lt;/li&gt;&lt;li&gt;&lt;b&gt;Packages&lt;/b&gt;&lt;/li&gt;&lt;li&gt;&lt;b&gt;Application Code&amp;nbsp;&lt;/b&gt;&lt;/li&gt;&lt;/ul&gt;" style="rounded=1;whiteSpace=wrap;html=1;" vertex="1" parent="1">
                    <mxGeometry x="438" y="380" width="290" height="250" as="geometry"/>
                </mxCell>
                <mxCell id="7" value="Application Container&amp;nbsp;&lt;div style=&quot;font-size: 15px;&quot;&gt;&lt;br style=&quot;font-size: 15px;&quot;&gt;&lt;/div&gt;" style="text;html=1;align=center;verticalAlign=middle;whiteSpace=wrap;rounded=0;fontStyle=1;fontSize=15;" vertex="1" parent="1">
                    <mxGeometry x="500.5" y="645" width="165" height="30" as="geometry"/>
                </mxCell>
                <mxCell id="8" value="No Issue" style="text;html=1;align=center;verticalAlign=middle;whiteSpace=wrap;rounded=0;fontColor=#33FF33;fontStyle=1" vertex="1" parent="1">
                    <mxGeometry x="8" y="450" width="60" height="30" as="geometry"/>
                </mxCell>
                <mxCell id="9" value="Issue" style="text;html=1;align=center;verticalAlign=middle;whiteSpace=wrap;rounded=0;fontColor=#FF0000;fontStyle=1" vertex="1" parent="1">
                    <mxGeometry x="3" y="590" width="60" height="30" as="geometry"/>
                </mxCell>
                <mxCell id="10" value="Issue" style="text;html=1;align=center;verticalAlign=middle;whiteSpace=wrap;rounded=0;fontColor=#FF0000;fontStyle=1" vertex="1" parent="1">
                    <mxGeometry x="3" y="740" width="60" height="30" as="geometry"/>
                </mxCell>
                <mxCell id="11" value="" style="shape=flexArrow;endArrow=classic;html=1;rounded=0;entryX=-0.009;entryY=0.288;entryDx=0;entryDy=0;entryPerimeter=0;" edge="1" parent="1" source="4" target="6">
                    <mxGeometry width="50" height="50" relative="1" as="geometry">
                        <mxPoint x="288" y="570" as="sourcePoint"/>
                        <mxPoint x="338" y="520" as="targetPoint"/>
                    </mxGeometry>
                </mxCell>
                <mxCell id="12" value="" style="shape=flexArrow;endArrow=classic;html=1;rounded=0;entryX=-0.009;entryY=0.618;entryDx=0;entryDy=0;entryPerimeter=0;" edge="1" parent="1" target="6">
                    <mxGeometry width="50" height="50" relative="1" as="geometry">
                        <mxPoint x="58" y="535" as="sourcePoint"/>
                        <mxPoint x="338" y="520" as="targetPoint"/>
                    </mxGeometry>
                </mxCell>
                <mxCell id="13" value="" style="shape=flexArrow;endArrow=classic;html=1;rounded=0;entryX=-0.009;entryY=0.813;entryDx=0;entryDy=0;entryPerimeter=0;" edge="1" parent="1" target="6">
                    <mxGeometry width="50" height="50" relative="1" as="geometry">
                        <mxPoint x="58" y="690" as="sourcePoint"/>
                        <mxPoint x="428" y="595" as="targetPoint"/>
                    </mxGeometry>
                </mxCell>
                <mxCell id="14" value="" style="rounded=1;whiteSpace=wrap;html=1;" vertex="1" parent="1">
                    <mxGeometry x="-12" y="850" width="680" height="480" as="geometry"/>
                </mxCell>
                <mxCell id="15" value="" style="rounded=1;whiteSpace=wrap;html=1;" vertex="1" parent="1">
                    <mxGeometry x="38" y="900" width="120" height="160" as="geometry"/>
                </mxCell>
                <mxCell id="16" value="" style="rounded=1;whiteSpace=wrap;html=1;" vertex="1" parent="1">
                    <mxGeometry x="258" y="900" width="120" height="160" as="geometry"/>
                </mxCell>
                <mxCell id="17" value="" style="rounded=1;whiteSpace=wrap;html=1;" vertex="1" parent="1">
                    <mxGeometry x="478" y="900" width="120" height="160" as="geometry"/>
                </mxCell>
                <mxCell id="18" value="Virtual Machine" style="text;html=1;align=center;verticalAlign=middle;whiteSpace=wrap;rounded=0;fontStyle=1;fontSize=15;" vertex="1" parent="1">
                    <mxGeometry x="258" y="900" width="120" height="30" as="geometry"/>
                </mxCell>
                <mxCell id="19" value="Virtual Machine" style="text;html=1;align=center;verticalAlign=middle;whiteSpace=wrap;rounded=0;fontStyle=1;fontSize=15;" vertex="1" parent="1">
                    <mxGeometry x="38" y="900" width="120" height="30" as="geometry"/>
                </mxCell>
                <mxCell id="20" value="Virtual Machine" style="text;html=1;align=center;verticalAlign=middle;whiteSpace=wrap;rounded=0;fontStyle=1;fontSize=15;" vertex="1" parent="1">
                    <mxGeometry x="478" y="900" width="120" height="30" as="geometry"/>
                </mxCell>
                <mxCell id="21" value="" style="rounded=1;whiteSpace=wrap;html=1;" vertex="1" parent="1">
                    <mxGeometry x="38" y="940" width="120" height="60" as="geometry"/>
                </mxCell>
                <mxCell id="22" value="APP A" style="text;html=1;align=center;verticalAlign=middle;whiteSpace=wrap;rounded=0;fontStyle=1;fontSize=13;" vertex="1" parent="1">
                    <mxGeometry x="63" y="955" width="60" height="30" as="geometry"/>
                </mxCell>
                <mxCell id="23" value="" style="rounded=1;whiteSpace=wrap;html=1;" vertex="1" parent="1">
                    <mxGeometry x="258" y="940" width="120" height="60" as="geometry"/>
                </mxCell>
                <mxCell id="24" value="APP B" style="text;html=1;align=center;verticalAlign=middle;whiteSpace=wrap;rounded=0;fontStyle=1;fontSize=13;" vertex="1" parent="1">
                    <mxGeometry x="288" y="955" width="60" height="30" as="geometry"/>
                </mxCell>
                <mxCell id="25" value="" style="rounded=1;whiteSpace=wrap;html=1;" vertex="1" parent="1">
                    <mxGeometry x="478" y="940" width="120" height="60" as="geometry"/>
                </mxCell>
                <mxCell id="26" value="APP C" style="text;html=1;align=center;verticalAlign=middle;whiteSpace=wrap;rounded=0;fontStyle=1;fontSize=13;" vertex="1" parent="1">
                    <mxGeometry x="508" y="955" width="60" height="30" as="geometry"/>
                </mxCell>
                <mxCell id="27" value="Guest&amp;nbsp; OS" style="text;html=1;align=center;verticalAlign=middle;whiteSpace=wrap;rounded=0;fontStyle=1" vertex="1" parent="1">
                    <mxGeometry x="63" y="1010" width="60" height="30" as="geometry"/>
                </mxCell>
                <mxCell id="28" value="Guest&amp;nbsp; OS" style="text;html=1;align=center;verticalAlign=middle;whiteSpace=wrap;rounded=0;fontStyle=1" vertex="1" parent="1">
                    <mxGeometry x="288" y="1010" width="60" height="30" as="geometry"/>
                </mxCell>
                <mxCell id="29" value="Guest&amp;nbsp; OS" style="text;html=1;align=center;verticalAlign=middle;whiteSpace=wrap;rounded=0;fontStyle=1" vertex="1" parent="1">
                    <mxGeometry x="508" y="1010" width="60" height="30" as="geometry"/>
                </mxCell>
                <mxCell id="30" value="" style="rounded=1;whiteSpace=wrap;html=1;" vertex="1" parent="1">
                    <mxGeometry x="48" y="1100" width="550" height="60" as="geometry"/>
                </mxCell>
                <mxCell id="31" value="&lt;font style=&quot;font-size: 37px;&quot;&gt;Hypervisor&lt;/font&gt;" style="text;html=1;align=center;verticalAlign=middle;whiteSpace=wrap;rounded=0;fontStyle=1" vertex="1" parent="1">
                    <mxGeometry x="308" y="1120" width="60" height="30" as="geometry"/>
                </mxCell>
                <mxCell id="32" value="" style="rounded=1;whiteSpace=wrap;html=1;" vertex="1" parent="1">
                    <mxGeometry x="48" y="1200" width="550" height="60" as="geometry"/>
                </mxCell>
                <mxCell id="33" value="&lt;font style=&quot;font-size: 37px;&quot;&gt;Infrastructure&lt;/font&gt;" style="text;html=1;align=center;verticalAlign=middle;whiteSpace=wrap;rounded=0;fontStyle=1" vertex="1" parent="1">
                    <mxGeometry x="293" y="1215" width="60" height="30" as="geometry"/>
                </mxCell>
                <mxCell id="34" value="" style="rounded=1;whiteSpace=wrap;html=1;" vertex="1" parent="1">
                    <mxGeometry x="-17" y="1360" width="680" height="480" as="geometry"/>
                </mxCell>
                <mxCell id="35" value="" style="rounded=1;whiteSpace=wrap;html=1;" vertex="1" parent="1">
                    <mxGeometry x="33" y="1400" width="120" height="160" as="geometry"/>
                </mxCell>
                <mxCell id="36" value="" style="rounded=1;whiteSpace=wrap;html=1;" vertex="1" parent="1">
                    <mxGeometry x="278" y="1400" width="120" height="160" as="geometry"/>
                </mxCell>
                <mxCell id="37" value="" style="rounded=1;whiteSpace=wrap;html=1;" vertex="1" parent="1">
                    <mxGeometry x="500.5" y="1400" width="120" height="160" as="geometry"/>
                </mxCell>
                <mxCell id="38" value="APP A" style="text;html=1;align=center;verticalAlign=middle;whiteSpace=wrap;rounded=0;fontStyle=1;fontSize=13;" vertex="1" parent="1">
                    <mxGeometry x="63" y="1460" width="60" height="30" as="geometry"/>
                </mxCell>
                <mxCell id="39" value="APP B" style="text;html=1;align=center;verticalAlign=middle;whiteSpace=wrap;rounded=0;fontStyle=1;fontSize=13;" vertex="1" parent="1">
                    <mxGeometry x="308" y="1460" width="60" height="30" as="geometry"/>
                </mxCell>
                <mxCell id="40" value="APP C" style="text;html=1;align=center;verticalAlign=middle;whiteSpace=wrap;rounded=0;fontStyle=1;fontSize=13;" vertex="1" parent="1">
                    <mxGeometry x="530.5" y="1460" width="60" height="30" as="geometry"/>
                </mxCell>
                <mxCell id="41" value="" style="rounded=1;whiteSpace=wrap;html=1;" vertex="1" parent="1">
                    <mxGeometry x="53" y="1590" width="550" height="60" as="geometry"/>
                </mxCell>
                <mxCell id="42" value="&lt;font style=&quot;font-size: 37px;&quot;&gt;Container Engine&lt;/font&gt;" style="text;html=1;align=center;verticalAlign=middle;whiteSpace=wrap;rounded=0;fontStyle=1" vertex="1" parent="1">
                    <mxGeometry x="108" y="1120" width="430" height="1000" as="geometry"/>
                </mxCell>
                <mxCell id="43" value="" style="rounded=1;whiteSpace=wrap;html=1;" vertex="1" parent="1">
                    <mxGeometry x="53" y="1670" width="550" height="60" as="geometry"/>
                </mxCell>
                <mxCell id="44" value="&lt;font style=&quot;font-size: 37px;&quot;&gt;Operating System&lt;/font&gt;" style="text;html=1;align=center;verticalAlign=middle;whiteSpace=wrap;rounded=0;fontStyle=1" vertex="1" parent="1">
                    <mxGeometry x="113" y="1200" width="430" height="1000" as="geometry"/>
                </mxCell>
                <mxCell id="45" value="" style="rounded=1;whiteSpace=wrap;html=1;" vertex="1" parent="1">
                    <mxGeometry x="53" y="1750" width="550" height="60" as="geometry"/>
                </mxCell>
                <mxCell id="46" value="&lt;font style=&quot;font-size: 37px;&quot;&gt;Infrastructure&lt;/font&gt;" style="text;html=1;align=center;verticalAlign=middle;whiteSpace=wrap;rounded=0;fontStyle=1" vertex="1" parent="1">
                    <mxGeometry x="113" y="1280" width="430" height="1000" as="geometry"/>
                </mxCell>
                <mxCell id="47" value="Docker File" style="rounded=1;whiteSpace=wrap;html=1;" vertex="1" parent="1">
                    <mxGeometry x="-14" y="1960" width="120" height="60" as="geometry"/>
                </mxCell>
                <mxCell id="48" value="" style="shape=flexArrow;endArrow=classic;html=1;rounded=0;exitX=0.007;exitY=0.719;exitDx=0;exitDy=0;exitPerimeter=0;" edge="1" parent="1">
                    <mxGeometry width="50" height="50" relative="1" as="geometry">
                        <mxPoint x="123" y="1989.5" as="sourcePoint"/>
                        <mxPoint x="244.99" y="1990.5" as="targetPoint"/>
                    </mxGeometry>
                </mxCell>
                <mxCell id="49" value="Docker image" style="rounded=1;whiteSpace=wrap;html=1;" vertex="1" parent="1">
                    <mxGeometry x="258" y="1960" width="120" height="60" as="geometry"/>
                </mxCell>
                <mxCell id="50" value="Build" style="text;html=1;align=center;verticalAlign=middle;whiteSpace=wrap;rounded=0;" vertex="1" parent="1">
                    <mxGeometry x="153" y="1960" width="60" height="30" as="geometry"/>
                </mxCell>
                <mxCell id="51" value="Docker Image" style="rounded=1;whiteSpace=wrap;html=1;" vertex="1" parent="1">
                    <mxGeometry x="-12" y="2060" width="120" height="60" as="geometry"/>
                </mxCell>
                <mxCell id="52" value="Docker Container" style="rounded=1;whiteSpace=wrap;html=1;" vertex="1" parent="1">
                    <mxGeometry x="248" y="2060" width="120" height="60" as="geometry"/>
                </mxCell>
                <mxCell id="53" value="" style="shape=flexArrow;endArrow=classic;html=1;rounded=0;exitX=0.007;exitY=0.719;exitDx=0;exitDy=0;exitPerimeter=0;" edge="1" parent="1">
                    <mxGeometry width="50" height="50" relative="1" as="geometry">
                        <mxPoint x="122" y="2089.5" as="sourcePoint"/>
                        <mxPoint x="243.99" y="2090.5" as="targetPoint"/>
                    </mxGeometry>
                </mxCell>
                <mxCell id="54" value="Run" style="text;html=1;align=center;verticalAlign=middle;whiteSpace=wrap;rounded=0;" vertex="1" parent="1">
                    <mxGeometry x="153" y="2060" width="60" height="30" as="geometry"/>
                </mxCell>
                <mxCell id="55" value="" style="rounded=1;whiteSpace=wrap;html=1;" vertex="1" parent="1">
                    <mxGeometry x="78" y="2205" width="340" height="200" as="geometry"/>
                </mxCell>
                <mxCell id="56" value="Host" style="text;html=1;align=center;verticalAlign=middle;whiteSpace=wrap;rounded=0;" vertex="1" parent="1">
                    <mxGeometry x="88" y="2180" width="60" height="30" as="geometry"/>
                </mxCell>
                <mxCell id="57" value="" style="rounded=1;whiteSpace=wrap;html=1;" vertex="1" parent="1">
                    <mxGeometry x="193" y="2220" width="70" height="20" as="geometry"/>
                </mxCell>
                <mxCell id="58" value="Container&lt;div&gt;&lt;br&gt;&lt;/div&gt;" style="text;html=1;align=center;verticalAlign=middle;whiteSpace=wrap;rounded=0;" vertex="1" parent="1">
                    <mxGeometry x="198" y="2230" width="60" height="10" as="geometry"/>
                </mxCell>
                <mxCell id="59" value="" style="rounded=1;whiteSpace=wrap;html=1;" vertex="1" parent="1">
                    <mxGeometry x="113" y="2290" width="95" height="30" as="geometry"/>
                </mxCell>
                <mxCell id="60" value="&lt;div&gt;File System&lt;/div&gt;" style="text;html=1;align=center;verticalAlign=middle;whiteSpace=wrap;rounded=0;" vertex="1" parent="1">
                    <mxGeometry x="123" y="2290" width="75" height="30" as="geometry"/>
                </mxCell>
                <mxCell id="61" value="" style="rounded=1;whiteSpace=wrap;html=1;" vertex="1" parent="1">
                    <mxGeometry x="293" y="2290" width="90" height="30" as="geometry"/>
                </mxCell>
                <mxCell id="62" value="&lt;div&gt;Memory&lt;/div&gt;" style="text;html=1;align=center;verticalAlign=middle;whiteSpace=wrap;rounded=0;" vertex="1" parent="1">
                    <mxGeometry x="300.5" y="2290" width="75" height="30" as="geometry"/>
                </mxCell>
                <mxCell id="63" value="" style="endArrow=classic;html=1;rounded=0;exitX=0;exitY=0.5;exitDx=0;exitDy=0;entryX=0.342;entryY=0.049;entryDx=0;entryDy=0;entryPerimeter=0;" edge="1" parent="1" source="57" target="60">
                    <mxGeometry width="50" height="50" relative="1" as="geometry">
                        <mxPoint x="188" y="2320" as="sourcePoint"/>
                        <mxPoint x="238" y="2270" as="targetPoint"/>
                        <Array as="points">
                            <mxPoint x="148" y="2230"/>
                        </Array>
                    </mxGeometry>
                </mxCell>
                <mxCell id="64" value="" style="endArrow=classic;html=1;rounded=0;exitX=0.651;exitY=1.03;exitDx=0;exitDy=0;exitPerimeter=0;" edge="1" parent="1" source="58">
                    <mxGeometry width="50" height="50" relative="1" as="geometry">
                        <mxPoint x="212.9957142857142" y="2270" as="sourcePoint"/>
                        <mxPoint x="208" y="2305" as="targetPoint"/>
                        <Array as="points">
                            <mxPoint x="238" y="2305"/>
                        </Array>
                    </mxGeometry>
                </mxCell>
                <mxCell id="65" value="" style="endArrow=classic;html=1;rounded=0;exitX=1;exitY=0.5;exitDx=0;exitDy=0;entryX=0.5;entryY=0;entryDx=0;entryDy=0;" edge="1" parent="1" source="57" target="62">
                    <mxGeometry width="50" height="50" relative="1" as="geometry">
                        <mxPoint x="188" y="2320" as="sourcePoint"/>
                        <mxPoint x="238" y="2270" as="targetPoint"/>
                        <Array as="points">
                            <mxPoint x="338" y="2230"/>
                        </Array>
                    </mxGeometry>
                </mxCell>
                <mxCell id="66" value="Bind Mount" style="text;html=1;align=center;verticalAlign=middle;whiteSpace=wrap;rounded=0;" vertex="1" parent="1">
                    <mxGeometry x="98" y="2240" width="60" height="30" as="geometry"/>
                </mxCell>
                <mxCell id="67" value="Volume" style="text;html=1;align=center;verticalAlign=middle;whiteSpace=wrap;rounded=0;" vertex="1" parent="1">
                    <mxGeometry x="233" y="2250" width="60" height="30" as="geometry"/>
                </mxCell>
                <mxCell id="68" value="tmpfs&lt;div&gt;mount&lt;/div&gt;&lt;div&gt;&lt;br&gt;&lt;/div&gt;" style="text;html=1;align=center;verticalAlign=middle;whiteSpace=wrap;rounded=0;" vertex="1" parent="1">
                    <mxGeometry x="338" y="2248" width="60" height="30" as="geometry"/>
                </mxCell>
                <mxCell id="69" value="" style="rounded=1;whiteSpace=wrap;html=1;" vertex="1" parent="1">
                    <mxGeometry x="128" y="2560" width="270" height="140" as="geometry"/>
                </mxCell>
                <mxCell id="70" value="" style="rounded=1;whiteSpace=wrap;html=1;" vertex="1" parent="1">
                    <mxGeometry x="153" y="2590" width="210" height="40" as="geometry"/>
                </mxCell>
                <mxCell id="71" value="Virtual File System" style="text;html=1;align=center;verticalAlign=middle;whiteSpace=wrap;rounded=0;" vertex="1" parent="1">
                    <mxGeometry x="183" y="2595" width="150" height="30" as="geometry"/>
                </mxCell>
                <mxCell id="72" value="Docker Container" style="text;html=1;align=center;verticalAlign=middle;whiteSpace=wrap;rounded=0;" vertex="1" parent="1">
                    <mxGeometry x="138" y="2570" width="130" height="30" as="geometry"/>
                </mxCell>
                <mxCell id="73" value="" style="rounded=1;whiteSpace=wrap;html=1;" vertex="1" parent="1">
                    <mxGeometry x="128" y="2670" width="270" height="30" as="geometry"/>
                </mxCell>
                <mxCell id="74" value="Host File System" style="text;html=1;align=center;verticalAlign=middle;whiteSpace=wrap;rounded=0;" vertex="1" parent="1">
                    <mxGeometry x="193" y="2670" width="150" height="30" as="geometry"/>
                </mxCell>
                <mxCell id="75" value="Host" style="text;html=1;align=center;verticalAlign=middle;whiteSpace=wrap;rounded=0;" vertex="1" parent="1">
                    <mxGeometry x="98" y="2540" width="130" height="30" as="geometry"/>
                </mxCell>
                <mxCell id="76" value="" style="shape=flexArrow;endArrow=classic;html=1;rounded=0;entryX=0.518;entryY=0.978;entryDx=0;entryDy=0;entryPerimeter=0;exitX=0.461;exitY=0.049;exitDx=0;exitDy=0;exitPerimeter=0;" edge="1" parent="1" source="74" target="70">
                    <mxGeometry width="50" height="50" relative="1" as="geometry">
                        <mxPoint x="258" y="2670" as="sourcePoint"/>
                        <mxPoint x="308" y="2620" as="targetPoint"/>
                    </mxGeometry>
                </mxCell>
                <mxCell id="77" value="Mount" style="text;html=1;align=center;verticalAlign=middle;whiteSpace=wrap;rounded=0;" vertex="1" parent="1">
                    <mxGeometry x="273" y="2640" width="60" height="30" as="geometry"/>
                </mxCell>
                <mxCell id="78" value="Developer" style="shape=umlActor;verticalLabelPosition=bottom;verticalAlign=top;html=1;outlineConnect=0;" vertex="1" parent="1">
                    <mxGeometry x="258" y="2790" width="30" height="60" as="geometry"/>
                </mxCell>
                <mxCell id="79" value="" style="sketch=0;pointerEvents=1;shadow=0;dashed=0;html=1;strokeColor=none;fillColor=#505050;labelPosition=center;verticalLabelPosition=bottom;verticalAlign=top;outlineConnect=0;align=center;shape=mxgraph.office.devices.laptop;" vertex="1" parent="1">
                    <mxGeometry x="320" y="2803" width="68" height="47" as="geometry"/>
                </mxCell>
                <mxCell id="80" value="React" style="text;html=1;align=center;verticalAlign=middle;whiteSpace=wrap;rounded=0;" vertex="1" parent="1">
                    <mxGeometry x="329" y="2811.5" width="49" height="17" as="geometry"/>
                </mxCell>
                <mxCell id="81" value="" style="whiteSpace=wrap;html=1;shape=mxgraph.basic.document" vertex="1" parent="1">
                    <mxGeometry x="438" y="2803" width="50" height="37" as="geometry"/>
                </mxCell>
                <mxCell id="82" value="&lt;font style=&quot;font-size: 10px;&quot;&gt;Dockerfile&lt;/font&gt;&lt;div&gt;&lt;br&gt;&lt;/div&gt;" style="text;html=1;align=center;verticalAlign=middle;whiteSpace=wrap;rounded=0;" vertex="1" parent="1">
                    <mxGeometry x="448" y="2860" width="30" height="20" as="geometry"/>
                </mxCell>
                <mxCell id="83" value="" style="endArrow=classic;html=1;rounded=0;entryX=-0.053;entryY=0.612;entryDx=0;entryDy=0;entryPerimeter=0;" edge="1" parent="1" source="79" target="81">
                    <mxGeometry width="50" height="50" relative="1" as="geometry">
                        <mxPoint x="468" y="2800" as="sourcePoint"/>
                        <mxPoint x="518" y="2750" as="targetPoint"/>
                    </mxGeometry>
                </mxCell>
                <mxCell id="84" value="&lt;font style=&quot;font-size: 8px;&quot;&gt;create&lt;/font&gt;" style="text;html=1;align=center;verticalAlign=middle;whiteSpace=wrap;rounded=0;" vertex="1" parent="1">
                    <mxGeometry x="375.5" y="2798.5" width="60" height="30" as="geometry"/>
                </mxCell>
                <mxCell id="85" value="" style="html=1;verticalLabelPosition=bottom;align=center;labelBackgroundColor=#ffffff;verticalAlign=top;strokeWidth=2;strokeColor=#0080F0;shadow=0;dashed=0;shape=mxgraph.ios7.icons.camera;" vertex="1" parent="1">
                    <mxGeometry x="548" y="2801.5" width="50" height="40" as="geometry"/>
                </mxCell>
                <mxCell id="86" value="&lt;font style=&quot;font-size: 8px;&quot;&gt;Build&lt;/font&gt;" style="text;html=1;align=center;verticalAlign=middle;whiteSpace=wrap;rounded=0;" vertex="1" parent="1">
                    <mxGeometry x="488" y="2798.5" width="60" height="30" as="geometry"/>
                </mxCell>
                <mxCell id="87" value="" style="endArrow=classic;html=1;rounded=0;exitX=0.002;exitY=0.966;exitDx=0;exitDy=0;exitPerimeter=0;entryX=-0.005;entryY=0.649;entryDx=0;entryDy=0;entryPerimeter=0;" edge="1" parent="1" source="86" target="85">
                    <mxGeometry width="50" height="50" relative="1" as="geometry">
                        <mxPoint x="528" y="2900" as="sourcePoint"/>
                        <mxPoint x="548" y="2828" as="targetPoint"/>
                    </mxGeometry>
                </mxCell>
                <mxCell id="88" value="&lt;span style=&quot;font-size: 10px;&quot;&gt;Docker Image&lt;/span&gt;&lt;div&gt;&lt;span style=&quot;font-size: 10px;&quot;&gt;&lt;br&gt;&lt;/span&gt;&lt;/div&gt;" style="text;html=1;align=center;verticalAlign=middle;whiteSpace=wrap;rounded=0;" vertex="1" parent="1">
                    <mxGeometry x="524.25" y="2860" width="97.5" height="20" as="geometry"/>
                </mxCell>
                <mxCell id="89" value="" style="endArrow=classic;html=1;rounded=0;exitX=1.031;exitY=0.616;exitDx=0;exitDy=0;exitPerimeter=0;" edge="1" parent="1" source="85">
                    <mxGeometry width="50" height="50" relative="1" as="geometry">
                        <mxPoint x="498" y="2920" as="sourcePoint"/>
                        <mxPoint x="638" y="2826" as="targetPoint"/>
                    </mxGeometry>
                </mxCell>
                <mxCell id="90" value="" style="html=1;whiteSpace=wrap;shape=isoCube2;backgroundOutline=1;isoAngle=15;" vertex="1" parent="1">
                    <mxGeometry x="648" y="2720" width="220" height="190" as="geometry"/>
                </mxCell>
                <mxCell id="91" value="&lt;font style=&quot;font-size: 8px;&quot;&gt;Run&lt;/font&gt;" style="text;html=1;align=center;verticalAlign=middle;resizable=0;points=[];autosize=1;strokeColor=none;fillColor=none;" vertex="1" parent="1">
                    <mxGeometry x="598" y="2798" width="40" height="30" as="geometry"/>
                </mxCell>
                <mxCell id="92" value="&lt;div&gt;&lt;span style=&quot;font-size: 10px;&quot;&gt;Container&lt;/span&gt;&lt;/div&gt;" style="text;html=1;align=center;verticalAlign=middle;whiteSpace=wrap;rounded=0;" vertex="1" parent="1">
                    <mxGeometry x="705.43" y="2920" width="97.5" height="10" as="geometry"/>
                </mxCell>
                <mxCell id="93" value="" style="sketch=0;outlineConnect=0;fontColor=#232F3E;gradientColor=none;fillColor=#232F3D;strokeColor=none;dashed=0;verticalLabelPosition=bottom;verticalAlign=top;align=center;html=1;fontSize=12;fontStyle=0;aspect=fixed;pointerEvents=1;shape=mxgraph.aws4.folder;" vertex="1" parent="1">
                    <mxGeometry x="658" y="2801.5" width="21.97" height="20" as="geometry"/>
                </mxCell>
                <mxCell id="94" value="app&lt;div&gt;&lt;br&gt;&lt;/div&gt;" style="text;html=1;align=center;verticalAlign=middle;whiteSpace=wrap;rounded=0;" vertex="1" parent="1">
                    <mxGeometry x="648" y="2821.5" width="60" height="30" as="geometry"/>
                </mxCell>
                <mxCell id="95" value="Working_DIR" style="text;html=1;align=center;verticalAlign=middle;whiteSpace=wrap;rounded=0;" vertex="1" parent="1">
                    <mxGeometry x="588" y="2910" width="60" height="30" as="geometry"/>
                </mxCell>
                <mxCell id="96" value="" style="endArrow=classic;html=1;rounded=0;exitX=0.637;exitY=-0.081;exitDx=0;exitDy=0;exitPerimeter=0;" edge="1" parent="1" source="95" target="93">
                    <mxGeometry width="50" height="50" relative="1" as="geometry">
                        <mxPoint x="498" y="2920" as="sourcePoint"/>
                        <mxPoint x="548" y="2870" as="targetPoint"/>
                    </mxGeometry>
                </mxCell>
            </root>
        </mxGraphModel>
    </diagram>
</mxfile>